# Blender v2.90.1 OBJ File: 'barra_inferior.blend'
# www.blender.org
mtllib barra_inferior.mtl
o Cubo.001_Cubo.002
v 0.124022 -1.033018 1.199678
v 0.124022 0.966792 1.227268
v -3.494417 -0.990329 -1.894563
v -3.423085 1.010069 -1.909630
v 5.974159 -1.025935 0.686311
v 5.974159 0.973874 0.713901
vt 0.375000 0.000000
vt 0.625000 0.000000
vt 0.625000 0.250000
vt 0.375000 0.250000
vt 0.375000 0.500000
vt 0.625000 0.500000
vt 0.625000 0.750000
vt 0.375000 0.750000
vt 0.625000 1.000000
vt 0.375000 1.000000
vt 0.125000 0.750000
vt 0.875000 0.500000
vt 0.875000 0.750000
vn -0.6561 0.0093 0.7546
vn 0.2659 -0.0017 -0.9640
vn 0.0874 -0.0137 0.9961
vn 0.0000 -0.9999 -0.0138
vn -0.0000 0.9999 0.0138
usemtl None
s off
f 1/1/1 2/2/1 4/3/1 3/4/1
f 3/5/2 4/6/2 6/7/2 5/8/2
f 5/8/3 6/7/3 2/9/3 1/10/3
f 3/5/4 5/8/4 1/11/4
f 4/12/5 2/13/5 6/7/5
