# Blender v2.90.1 OBJ File: 'caja.blend'
# www.blender.org
mtllib caja.mtl
o Cube
v 1.000000 1.000000 -0.416469
v 0.416469 1.000000 -1.000000
v 0.985370 1.000000 -0.546317
v 0.942212 1.000000 -0.669653
v 0.872692 1.000000 -0.780294
v 0.780294 1.000000 -0.872692
v 0.669653 1.000000 -0.942212
v 0.546317 1.000000 -0.985370
v 0.416469 -1.000000 -1.000000
v 1.000000 -1.000000 -0.416469
v 0.546317 -1.000000 -0.985370
v 0.669653 -1.000000 -0.942212
v 0.780294 -1.000000 -0.872692
v 0.872692 -1.000000 -0.780294
v 0.942212 -1.000000 -0.669653
v 0.985370 -1.000000 -0.546317
v 0.416469 1.000000 1.000000
v 1.000000 1.000000 0.416469
v 0.546317 1.000000 0.985370
v 0.669653 1.000000 0.942212
v 0.780294 1.000000 0.872692
v 0.872692 1.000000 0.780294
v 0.942212 1.000000 0.669653
v 0.985370 1.000000 0.546317
v 1.000000 -1.000000 0.416469
v 0.416469 -1.000000 1.000000
v 0.985370 -1.000000 0.546317
v 0.942212 -1.000000 0.669653
v 0.872692 -1.000000 0.780294
v 0.780294 -1.000000 0.872692
v 0.669653 -1.000000 0.942212
v 0.546317 -1.000000 0.985370
v -0.416469 1.000000 -1.000000
v -1.000000 1.000000 -0.416469
v -0.546317 1.000000 -0.985370
v -0.669653 1.000000 -0.942212
v -0.780294 1.000000 -0.872692
v -0.872692 1.000000 -0.780294
v -0.942212 1.000000 -0.669653
v -0.985370 1.000000 -0.546317
v -1.000000 -1.000000 -0.416469
v -0.416469 -1.000000 -1.000000
v -0.985370 -1.000000 -0.546317
v -0.942212 -1.000000 -0.669653
v -0.872692 -1.000000 -0.780294
v -0.780294 -1.000000 -0.872692
v -0.669653 -1.000000 -0.942212
v -0.546317 -1.000000 -0.985370
v -1.000000 1.000000 0.416469
v -0.416469 1.000000 1.000000
v -0.985370 1.000000 0.546317
v -0.942212 1.000000 0.669653
v -0.872692 1.000000 0.780294
v -0.780294 1.000000 0.872692
v -0.669653 1.000000 0.942212
v -0.546317 1.000000 0.985370
v -0.416469 -1.000000 1.000000
v -1.000000 -1.000000 0.416469
v -0.546317 -1.000000 0.985370
v -0.669653 -1.000000 0.942212
v -0.780294 -1.000000 0.872692
v -0.872692 -1.000000 0.780294
v -0.942212 -1.000000 0.669653
v -0.985370 -1.000000 0.546317
vt 0.375000 0.572941
vt 0.302059 0.750000
vt 0.125000 0.677059
vt 0.625000 0.072941
vt 0.375000 0.177059
vt 0.375000 0.072941
vt 0.625000 0.822941
vt 0.375000 0.927059
vt 0.375000 0.822941
vt 0.875000 0.572941
vt 0.802059 0.750000
vt 0.625000 0.677059
vt 0.625000 0.572941
vt 0.375000 0.677059
vt 0.625610 0.556710
vt 0.374390 0.556710
vt 0.627408 0.541293
vt 0.372592 0.541293
vt 0.630305 0.527463
vt 0.369696 0.527463
vt 0.634154 0.486996
vt 0.365846 0.486996
vt 0.638764 0.474879
vt 0.361236 0.474879
vt 0.643903 0.462803
vt 0.356097 0.462803
vt 0.625000 0.427059
vt 0.625000 0.927059
vt 0.375000 0.943290
vt 0.625000 0.943290
vt 0.375000 0.958707
vt 0.625000 0.958707
vt 0.375000 0.972537
vt 0.625000 0.000000
vt 0.375000 0.027463
vt 0.375000 0.000000
vt 0.625000 0.027463
vt 0.375000 0.041293
vt 0.625000 0.041293
vt 0.375000 0.056710
vt 0.625000 0.056710
vt 0.643903 0.787197
vt 0.356097 0.787197
vt 0.638765 0.775121
vt 0.361236 0.775121
vt 0.634154 0.763004
vt 0.365846 0.763004
vt 0.630305 0.722537
vt 0.369696 0.722537
vt 0.627408 0.708707
vt 0.372592 0.708707
vt 0.625610 0.693290
vt 0.374390 0.693290
vt 0.375000 0.322941
vt 0.689430 0.371750
vt 0.625000 0.322941
vt 0.310570 0.371750
vt 0.694569 0.363270
vt 0.305431 0.363270
vt 0.699179 0.356947
vt 0.300821 0.356947
vt 0.703029 0.324179
vt 0.296971 0.324179
vt 0.705926 0.319569
vt 0.294075 0.319569
vt 0.707724 0.314430
vt 0.292276 0.314430
vt 0.625000 0.177059
vt 0.375000 0.427059
vt 0.125000 0.572941
vt 0.197941 0.500000
vt 0.302059 0.500000
vt 0.197941 0.750000
vt 0.181710 0.748171
vt 0.166293 0.742777
vt 0.152463 0.734086
vt 0.140914 0.722537
vt 0.132223 0.708707
vt 0.126829 0.693289
vt 0.697941 0.500000
vt 0.802059 0.500000
vt 0.875000 0.677059
vt 0.873171 0.693290
vt 0.867777 0.708707
vt 0.859087 0.722537
vt 0.847537 0.734087
vt 0.833707 0.742777
vt 0.818290 0.748171
vt 0.697941 0.750000
vt 0.625000 0.972537
vn 0.0000 -1.0000 0.0000
vn -1.0000 0.0000 0.0000
vn 0.0000 0.0000 1.0000
vn 0.0000 1.0000 0.0000
vn 1.0000 0.0000 0.0000
vn 0.9937 0.0000 -0.1120
vn 0.9439 0.0000 -0.3303
vn 0.8467 0.0000 -0.5320
vn 0.7071 0.0000 -0.7071
vn 0.5320 0.0000 -0.8467
vn 0.3303 0.0000 -0.9439
vn 0.1120 0.0000 -0.9937
vn -0.1120 0.0000 0.9937
vn -0.3303 0.0000 0.9439
vn -0.5320 0.0000 0.8467
vn -0.7071 0.0000 0.7071
vn -0.8467 0.0000 0.5320
vn -0.9439 0.0000 0.3303
vn -0.9937 0.0000 0.1120
vn 0.1120 0.0000 0.9937
vn 0.3303 0.0000 0.9439
vn 0.5320 0.0000 0.8467
vn 0.7071 0.0000 0.7071
vn 0.8467 0.0000 0.5320
vn 0.9439 0.0000 0.3303
vn 0.9937 0.0000 0.1120
vn -0.1120 0.0000 -0.9937
vn -0.3303 0.0000 -0.9439
vn -0.5320 0.0000 -0.8467
vn -0.7071 0.0000 -0.7071
vn -0.8467 0.0000 -0.5320
vn -0.9439 0.0000 -0.3303
vn -0.9937 0.0000 -0.1120
vn 0.0000 0.0000 -1.0000
usemtl Material
s off
f 10/1/1 26/2/1 58/3/1
f 49/4/2 41/5/2 58/6/2
f 17/7/3 57/8/3 26/9/3
f 34/10/4 50/11/4 18/12/4
f 1/13/5 25/14/5 10/1/5
f 10/1/6 3/15/6 1/13/6
f 16/16/7 4/17/7 3/15/7
f 15/18/8 5/19/8 4/17/8
f 14/20/9 6/21/9 5/19/9
f 13/22/10 7/23/10 6/21/10
f 12/24/11 8/25/11 7/23/11
f 11/26/12 2/27/12 8/25/12
f 50/28/13 59/29/13 57/8/13
f 56/30/14 60/31/14 59/29/14
f 55/32/15 61/33/15 60/31/15
f 54/34/16 62/35/16 61/36/16
f 53/37/17 63/38/17 62/35/17
f 52/39/18 64/40/18 63/38/18
f 51/41/19 58/6/19 64/40/19
f 26/9/20 19/42/20 17/7/20
f 32/43/21 20/44/21 19/42/21
f 31/45/22 21/46/22 20/44/22
f 30/47/23 22/48/23 21/46/23
f 29/49/24 23/50/24 22/48/24
f 28/51/25 24/52/25 23/50/25
f 27/53/26 18/12/26 24/52/26
f 42/54/27 35/55/27 33/56/27
f 48/57/28 36/58/28 35/55/28
f 47/59/29 37/60/29 36/58/29
f 46/61/30 38/62/30 37/60/30
f 45/63/31 39/64/31 38/62/31
f 44/65/32 40/66/32 39/64/32
f 43/67/33 34/68/33 40/66/33
f 33/56/34 9/69/34 42/54/34
f 58/3/1 41/70/1 42/71/1
f 41/70/1 43/67/1 42/71/1
f 43/67/1 44/65/1 45/63/1
f 45/63/1 46/61/1 47/59/1
f 47/59/1 48/57/1 45/63/1
f 48/57/1 42/71/1 45/63/1
f 42/71/1 9/72/1 10/1/1
f 9/72/1 11/26/1 10/1/1
f 11/26/1 12/24/1 13/22/1
f 13/22/1 14/20/1 15/18/1
f 15/18/1 16/16/1 13/22/1
f 16/16/1 10/1/1 13/22/1
f 10/1/1 25/14/1 26/2/1
f 25/14/1 27/53/1 26/2/1
f 27/53/1 28/51/1 29/49/1
f 29/49/1 30/47/1 31/45/1
f 31/45/1 32/43/1 29/49/1
f 32/43/1 26/2/1 29/49/1
f 26/2/1 57/73/1 58/3/1
f 57/73/1 59/74/1 58/3/1
f 59/74/1 60/75/1 61/76/1
f 61/76/1 62/77/1 63/78/1
f 63/78/1 64/79/1 61/76/1
f 64/79/1 58/3/1 61/76/1
f 43/67/1 45/63/1 42/71/1
f 11/26/1 13/22/1 10/1/1
f 27/53/1 29/49/1 26/2/1
f 59/74/1 61/76/1 58/3/1
f 58/3/1 42/71/1 10/1/1
f 49/4/2 34/68/2 41/5/2
f 17/7/3 50/28/3 57/8/3
f 18/12/4 1/13/4 2/80/4
f 1/13/4 3/15/4 2/80/4
f 3/15/4 4/17/4 5/19/4
f 5/19/4 6/21/4 7/23/4
f 7/23/4 8/25/4 5/19/4
f 8/25/4 2/80/4 5/19/4
f 2/80/4 33/81/4 34/10/4
f 33/81/4 35/55/4 34/10/4
f 35/55/4 36/58/4 37/60/4
f 37/60/4 38/62/4 39/64/4
f 39/64/4 40/66/4 37/60/4
f 40/66/4 34/10/4 37/60/4
f 34/10/4 49/82/4 50/11/4
f 49/82/4 51/83/4 50/11/4
f 51/83/4 52/84/4 53/85/4
f 53/85/4 54/86/4 55/87/4
f 55/87/4 56/88/4 53/85/4
f 56/88/4 50/11/4 53/85/4
f 50/11/4 17/89/4 18/12/4
f 17/89/4 19/42/4 18/12/4
f 19/42/4 20/44/4 21/46/4
f 21/46/4 22/48/4 23/50/4
f 23/50/4 24/52/4 21/46/4
f 24/52/4 18/12/4 21/46/4
f 3/15/4 5/19/4 2/80/4
f 35/55/4 37/60/4 34/10/4
f 51/83/4 53/85/4 50/11/4
f 19/42/4 21/46/4 18/12/4
f 18/12/4 2/80/4 34/10/4
f 1/13/5 18/12/5 25/14/5
f 10/1/6 16/16/6 3/15/6
f 16/16/7 15/18/7 4/17/7
f 15/18/8 14/20/8 5/19/8
f 14/20/9 13/22/9 6/21/9
f 13/22/10 12/24/10 7/23/10
f 12/24/11 11/26/11 8/25/11
f 11/26/12 9/69/12 2/27/12
f 50/28/13 56/30/13 59/29/13
f 56/30/14 55/32/14 60/31/14
f 55/32/15 54/90/15 61/33/15
f 54/34/16 53/37/16 62/35/16
f 53/37/17 52/39/17 63/38/17
f 52/39/18 51/41/18 64/40/18
f 51/41/19 49/4/19 58/6/19
f 26/9/20 32/43/20 19/42/20
f 32/43/21 31/45/21 20/44/21
f 31/45/22 30/47/22 21/46/22
f 30/47/23 29/49/23 22/48/23
f 29/49/24 28/51/24 23/50/24
f 28/51/25 27/53/25 24/52/25
f 27/53/26 25/14/26 18/12/26
f 42/54/27 48/57/27 35/55/27
f 48/57/28 47/59/28 36/58/28
f 47/59/29 46/61/29 37/60/29
f 46/61/30 45/63/30 38/62/30
f 45/63/31 44/65/31 39/64/31
f 44/65/32 43/67/32 40/66/32
f 43/67/33 41/5/33 34/68/33
f 33/56/34 2/27/34 9/69/34
o Cilindro
v 0.000000 1.113660 -0.714261
v 0.000000 0.974717 -0.714261
v 0.139345 1.113660 -0.700537
v 0.139345 0.974717 -0.700537
v 0.273336 1.113660 -0.659891
v 0.273336 0.974717 -0.659891
v 0.396822 1.113660 -0.593886
v 0.396822 0.974717 -0.593886
v 0.505059 1.113660 -0.505059
v 0.505059 0.974717 -0.505059
v 0.593886 1.113660 -0.396822
v 0.593886 0.974717 -0.396822
v 0.659891 1.113660 -0.273336
v 0.659891 0.974717 -0.273336
v 0.700537 1.113660 -0.139345
v 0.700537 0.974717 -0.139345
v 0.714261 1.113660 -0.000000
v 0.714261 0.974717 -0.000000
v 0.700537 1.113660 0.139345
v 0.700537 0.974717 0.139345
v 0.659891 1.113660 0.273336
v 0.659891 0.974717 0.273336
v 0.593886 1.113660 0.396822
v 0.593886 0.974717 0.396822
v 0.505059 1.113660 0.505059
v 0.505059 0.974717 0.505059
v 0.396822 1.113660 0.593886
v 0.396822 0.974717 0.593886
v 0.273336 1.113660 0.659891
v 0.273336 0.974717 0.659891
v 0.139345 1.113660 0.700537
v 0.139345 0.974717 0.700537
v -0.000000 1.113660 0.714261
v -0.000000 0.974717 0.714261
v -0.139346 1.113660 0.700537
v -0.139346 0.974717 0.700537
v -0.273336 1.113660 0.659891
v -0.273336 0.974717 0.659891
v -0.396823 1.113660 0.593886
v -0.396823 0.974717 0.593886
v -0.505059 1.113660 0.505059
v -0.505059 0.974717 0.505059
v -0.593887 1.113660 0.396822
v -0.593887 0.974717 0.396822
v -0.659891 1.113660 0.273335
v -0.659891 0.974717 0.273335
v -0.700537 1.113660 0.139345
v -0.700537 0.974717 0.139345
v -0.714261 1.113660 -0.000001
v -0.714261 0.974717 -0.000001
v -0.700537 1.113660 -0.139346
v -0.700537 0.974717 -0.139346
v -0.659891 1.113660 -0.273337
v -0.659891 0.974717 -0.273337
v -0.593886 1.113660 -0.396823
v -0.593886 0.974717 -0.396823
v -0.505058 1.113660 -0.505059
v -0.505058 0.974717 -0.505059
v -0.396821 1.113660 -0.593887
v -0.396821 0.974717 -0.593887
v -0.273335 1.113660 -0.659892
v -0.273335 0.974717 -0.659892
v -0.139344 1.113660 -0.700537
v -0.139344 0.974717 -0.700537
vt 1.000000 1.000000
vt 1.000000 0.500000
vt 0.968750 0.500000
vt 0.968750 1.000000
vt 0.937500 0.500000
vt 0.937500 1.000000
vt 0.906250 0.500000
vt 0.906250 1.000000
vt 0.875000 0.500000
vt 0.875000 1.000000
vt 0.843750 0.500000
vt 0.843750 1.000000
vt 0.812500 0.500000
vt 0.812500 1.000000
vt 0.781250 0.500000
vt 0.781250 1.000000
vt 0.750000 0.500000
vt 0.750000 1.000000
vt 0.718750 0.500000
vt 0.718750 1.000000
vt 0.687500 0.500000
vt 0.687500 1.000000
vt 0.656250 0.500000
vt 0.656250 1.000000
vt 0.625000 0.500000
vt 0.625000 1.000000
vt 0.593750 0.500000
vt 0.593750 1.000000
vt 0.562500 0.500000
vt 0.562500 1.000000
vt 0.531250 0.500000
vt 0.531250 1.000000
vt 0.500000 0.500000
vt 0.500000 1.000000
vt 0.468750 0.500000
vt 0.468750 1.000000
vt 0.437500 0.500000
vt 0.437500 1.000000
vt 0.406250 0.500000
vt 0.406250 1.000000
vt 0.375000 0.500000
vt 0.375000 1.000000
vt 0.343750 0.500000
vt 0.343750 1.000000
vt 0.312500 0.500000
vt 0.312500 1.000000
vt 0.281250 0.500000
vt 0.281250 1.000000
vt 0.250000 0.500000
vt 0.250000 1.000000
vt 0.218750 0.500000
vt 0.218750 1.000000
vt 0.187500 0.500000
vt 0.187500 1.000000
vt 0.156250 0.500000
vt 0.156250 1.000000
vt 0.125000 0.500000
vt 0.125000 1.000000
vt 0.093750 0.500000
vt 0.093750 1.000000
vt 0.062500 0.500000
vt 0.028269 0.341844
vt 0.471731 0.158156
vt 0.158156 0.028269
vt 0.062500 1.000000
vt 0.031250 0.500000
vt 0.031250 1.000000
vt 0.000000 0.500000
vt 0.985388 0.296822
vt 0.514611 0.203179
vt 0.796822 0.014612
vt 0.341844 0.471731
vt 0.250000 0.490000
vt 0.296822 0.485388
vt 0.203179 0.485389
vt 0.158156 0.471731
vt 0.080295 0.419706
vt 0.116663 0.449553
vt 0.050447 0.383337
vt 0.010000 0.250000
vt 0.014612 0.296822
vt 0.014611 0.203179
vt 0.028269 0.158156
vt 0.050447 0.116663
vt 0.080294 0.080294
vt 0.116663 0.050447
vt 0.250000 0.010000
vt 0.203178 0.014612
vt 0.341844 0.028269
vt 0.296822 0.014612
vt 0.419706 0.080294
vt 0.383337 0.050447
vt 0.449553 0.116663
vt 0.490000 0.250000
vt 0.485388 0.203178
vt 0.485388 0.296822
vt 0.471731 0.341844
vt 0.419706 0.419706
vt 0.449553 0.383337
vt 0.383337 0.449553
vt 0.000000 1.000000
vt 0.703179 0.485389
vt 0.796822 0.485388
vt 0.750000 0.490000
vt 0.883337 0.449553
vt 0.841844 0.471731
vt 0.949553 0.383337
vt 0.919706 0.419706
vt 0.971731 0.341844
vt 0.985388 0.203178
vt 0.990000 0.250000
vt 0.971731 0.158156
vt 0.949553 0.116663
vt 0.919706 0.080294
vt 0.883337 0.050447
vt 0.841844 0.028269
vt 0.703178 0.014612
vt 0.750000 0.010000
vt 0.616663 0.050447
vt 0.658156 0.028269
vt 0.550447 0.116663
vt 0.580294 0.080294
vt 0.528269 0.158156
vt 0.514612 0.296822
vt 0.510000 0.250000
vt 0.550447 0.383337
vt 0.528269 0.341844
vt 0.580295 0.419706
vt 0.616663 0.449553
vt 0.658156 0.471731
vn 0.0980 0.0000 -0.9952
vn 0.2903 0.0000 -0.9569
vn 0.4714 0.0000 -0.8819
vn 0.6344 0.0000 -0.7730
vn 0.7730 0.0000 -0.6344
vn 0.8819 0.0000 -0.4714
vn 0.9569 0.0000 -0.2903
vn 0.9952 0.0000 -0.0980
vn 0.9952 0.0000 0.0980
vn 0.9569 0.0000 0.2903
vn 0.8819 0.0000 0.4714
vn 0.7730 0.0000 0.6344
vn 0.6344 0.0000 0.7730
vn 0.4714 0.0000 0.8819
vn 0.2903 0.0000 0.9569
vn 0.0980 0.0000 0.9952
vn -0.0980 0.0000 0.9952
vn -0.2903 0.0000 0.9569
vn -0.4714 0.0000 0.8819
vn -0.6344 0.0000 0.7730
vn -0.7730 0.0000 0.6344
vn -0.8819 0.0000 0.4714
vn -0.9569 0.0000 0.2903
vn -0.9952 0.0000 0.0980
vn -0.9952 0.0000 -0.0980
vn -0.9569 0.0000 -0.2903
vn -0.8819 0.0000 -0.4714
vn -0.7730 0.0000 -0.6344
vn -0.6344 0.0000 -0.7730
vn -0.4714 0.0000 -0.8819
vn 0.0000 -1.0000 -0.0000
vn -0.2903 0.0000 -0.9569
vn -0.0980 0.0000 -0.9952
vn 0.0000 1.0000 0.0000
usemtl Material.001
s off
f 66/91/35 65/92/35 67/93/35
f 68/94/36 67/93/36 69/95/36
f 70/96/37 69/95/37 71/97/37
f 72/98/38 71/97/38 73/99/38
f 74/100/39 73/99/39 75/101/39
f 76/102/40 75/101/40 77/103/40
f 78/104/41 77/103/41 79/105/41
f 80/106/42 79/105/42 81/107/42
f 82/108/43 81/107/43 83/109/43
f 84/110/44 83/109/44 85/111/44
f 86/112/45 85/111/45 87/113/45
f 88/114/46 87/113/46 89/115/46
f 90/116/47 89/115/47 91/117/47
f 92/118/48 91/117/48 93/119/48
f 94/120/49 93/119/49 95/121/49
f 96/122/50 95/121/50 97/123/50
f 98/124/51 97/123/51 99/125/51
f 100/126/52 99/125/52 101/127/52
f 102/128/53 101/127/53 103/129/53
f 104/130/54 103/129/54 105/131/54
f 106/132/55 105/131/55 107/133/55
f 108/134/56 107/133/56 109/135/56
f 110/136/57 109/135/57 111/137/57
f 112/138/58 111/137/58 113/139/58
f 114/140/59 113/139/59 115/141/59
f 116/142/60 115/141/60 117/143/60
f 118/144/61 117/143/61 119/145/61
f 120/146/62 119/145/62 121/147/62
f 122/148/63 121/147/63 123/149/63
f 124/150/64 123/149/64 125/151/64
f 118/152/65 86/153/65 102/154/65
f 126/155/66 125/151/66 127/156/66
f 128/157/67 127/156/67 65/158/67
f 79/159/68 111/160/68 95/161/68
f 66/91/35 67/93/35 68/94/35
f 68/94/36 69/95/36 70/96/36
f 70/96/37 71/97/37 72/98/37
f 72/98/38 73/99/38 74/100/38
f 74/100/39 75/101/39 76/102/39
f 76/102/40 77/103/40 78/104/40
f 78/104/41 79/105/41 80/106/41
f 80/106/42 81/107/42 82/108/42
f 82/108/43 83/109/43 84/110/43
f 84/110/44 85/111/44 86/112/44
f 86/112/45 87/113/45 88/114/45
f 88/114/46 89/115/46 90/116/46
f 90/116/47 91/117/47 92/118/47
f 92/118/48 93/119/48 94/120/48
f 94/120/49 95/121/49 96/122/49
f 96/122/50 97/123/50 98/124/50
f 98/124/51 99/125/51 100/126/51
f 100/126/52 101/127/52 102/128/52
f 102/128/53 103/129/53 104/130/53
f 104/130/54 105/131/54 106/132/54
f 106/132/55 107/133/55 108/134/55
f 108/134/56 109/135/56 110/136/56
f 110/136/57 111/137/57 112/138/57
f 112/138/58 113/139/58 114/140/58
f 114/140/59 115/141/59 116/142/59
f 116/142/60 117/143/60 118/144/60
f 118/144/61 119/145/61 120/146/61
f 120/146/62 121/147/62 122/148/62
f 122/148/63 123/149/63 124/150/63
f 124/150/64 125/151/64 126/155/64
f 70/162/65 66/163/65 68/164/65
f 66/163/65 70/162/65 128/165/65
f 128/165/65 70/162/65 126/166/65
f 126/166/65 122/167/65 124/168/65
f 122/167/65 118/152/65 120/169/65
f 118/152/65 114/170/65 116/171/65
f 114/170/65 118/152/65 112/172/65
f 112/172/65 118/152/65 110/173/65
f 110/173/65 102/154/65 108/174/65
f 108/174/65 102/154/65 106/175/65
f 106/175/65 102/154/65 104/176/65
f 102/154/65 98/177/65 100/178/65
f 98/177/65 94/179/65 96/180/65
f 94/179/65 90/181/65 92/182/65
f 90/181/65 86/153/65 88/183/65
f 86/153/65 82/184/65 84/185/65
f 82/184/65 86/153/65 80/186/65
f 80/186/65 86/153/65 78/187/65
f 78/187/65 74/188/65 76/189/65
f 74/188/65 70/162/65 72/190/65
f 126/166/65 70/162/65 122/167/65
f 122/167/65 70/162/65 118/152/65
f 102/154/65 86/153/65 98/177/65
f 98/177/65 86/153/65 94/179/65
f 94/179/65 86/153/65 90/181/65
f 78/187/65 86/153/65 74/188/65
f 74/188/65 86/153/65 70/162/65
f 118/152/65 102/154/65 110/173/65
f 70/162/65 86/153/65 118/152/65
f 126/155/66 127/156/66 128/157/66
f 128/157/67 65/158/67 66/191/67
f 127/192/68 67/193/68 65/194/68
f 67/193/68 71/195/68 69/196/68
f 71/195/68 75/197/68 73/198/68
f 75/197/68 71/195/68 77/199/68
f 77/199/68 71/195/68 79/159/68
f 79/159/68 83/200/68 81/201/68
f 83/200/68 79/159/68 85/202/68
f 85/202/68 79/159/68 87/203/68
f 87/203/68 95/161/68 89/204/68
f 89/204/68 95/161/68 91/205/68
f 91/205/68 95/161/68 93/206/68
f 95/161/68 99/207/68 97/208/68
f 99/207/68 103/209/68 101/210/68
f 103/209/68 107/211/68 105/212/68
f 107/211/68 111/160/68 109/213/68
f 111/160/68 115/214/68 113/215/68
f 115/214/68 119/216/68 117/217/68
f 119/216/68 127/192/68 121/218/68
f 121/218/68 127/192/68 123/219/68
f 123/219/68 127/192/68 125/220/68
f 127/192/68 71/195/68 67/193/68
f 95/161/68 111/160/68 99/207/68
f 99/207/68 111/160/68 103/209/68
f 103/209/68 111/160/68 107/211/68
f 111/160/68 127/192/68 115/214/68
f 115/214/68 127/192/68 119/216/68
f 127/192/68 79/159/68 71/195/68
f 79/159/68 95/161/68 87/203/68
f 127/192/68 111/160/68 79/159/68
